PathFileType	4	(X/Y/Z)	E:\Qualisys_Data\Carbon_Farble_Plate\Data\Amateur_Runner\S2\T1\S2T1V11_c3d.trc
DataRate	CameraRate	NumFrames	NumMarkers	Units	OrigDataRate	OrigDataStartFrame	OrigNumFrames
200.000000	200.000000	5	39	mm	200.000000	0	328
Frame#	Time	LSHO			RSHO			LICST			RICST			LASIS			LHEEL			RASIS			LTROC			RTROC			SACR			LTH1			LSK4			LTH2			LTH3			RHM5			LSK2			LTH4			RTH1			LTOE			RTH2			RTH3			RTH4			LLEP			RLEP			LSK1			LSK3			RSK1			LHM5			RSK2			LFT1			RSK3			RSK4			LLME			RLME			RTOE			RHEEL			RFT1			RFT2			LFT2			
		X1	Y1	Z1	X2	Y2	Z2	X3	Y3	Z3	X4	Y4	Z4	X5	Y5	Z5	X6	Y6	Z6	X7	Y7	Z7	X8	Y8	Z8	X9	Y9	Z9	X10	Y10	Z10	X11	Y11	Z11	X12	Y12	Z12	X13	Y13	Z13	X14	Y14	Z14	X15	Y15	Z15	X16	Y16	Z16	X17	Y17	Z17	X18	Y18	Z18	X19	Y19	Z19	X20	Y20	Z20	X21	Y21	Z21	X22	Y22	Z22	X23	Y23	Z23	X24	Y24	Z24	X25	Y25	Z25	X26	Y26	Z26	X27	Y27	Z27	X28	Y28	Z28	X29	Y29	Z29	X30	Y30	Z30	X31	Y31	Z31	X32	Y32	Z32	X33	Y33	Z33	X34	Y34	Z34	X35	Y35	Z35	X36	Y36	Z36	X37	Y37	Z37	X38	Y38	Z38	X39	Y39	Z39	

1	0	-2918.360107421875	1525.78125	-451.58642578125	-2946.2236328125	1505.839233398438	-144.0235748291016	-2977.907470703125	1064.199462890625	-443.2093811035156	-2957.31591796875	1054.570190429688	-147.0539398193359	-2930.091552734375	1008.370422363281	-433.2361145019531	-3480.50537109375	372.2671508789062	-344.071044921875	-2902.252685546875	1006.835083007812	-180.0690002441406	-3079.997314453125	966.681884765625	-442.6946411132812	-3035.268798828125	950.8658447265625	-129.5490112304688	-3064.50048828125	1104.471923828125	-292.3703918457031	-3046.7880859375	708.3030395507812	-452.5557861328125	-3363.24169921875	473.51611328125	-426.5058288574219	-3124.073974609375	740.40234375	-451.3276977539062	-3085.610107421875	614.5220947265625	-435.7735290527344	-2652.768310546875	164.4240417480469	-149.5565490722656	-3289.99609375	539.7923583984375	-440.303466796875	-3162.580810546875	649.226806640625	-428.9508361816406	-2824.31298828125	718.6480102539062	-137.184814453125	-3438.8466796875	131.6716003417969	-358.6434631347656	-2899.3896484375	695.3651733398438	-132.6454162597656	-2796.641845703125	624.4164428710938	-162.9526977539062	-2874.73193359375	604.3387451171875	-152.7940368652344	-3155.10302734375	590.6163940429688	-434.9837036132812	-2834.582275390625	576.3165283203125	-154.4775695800781	-3238.4140625	481.5240173339844	-443.6449890136719	-3312.881591796875	415.1268310546875	-435.7001647949219	-2783.70263671875	459.9580688476562	-151.2619934082031	-3485.546875	172.7759094238281	-413.2779846191406	-2861.050537109375	451.6828308105469	-132.9430084228516	-3490.953369140625	356.5545349121094	-307.946533203125	-2773.65966796875	358.8889465332031	-158.1945343017578	-2851.791748046875	353.7397155761719	-143.5602722167969	-3467.973876953125	319.0143432617188	-403.1596069335938	-2789.68798828125	165.4043731689453	-176.5319061279297	-2609.7763671875	205.2044525146484	-211.0829010009766	-2853.3876953125	128.4367218017578	-228.3844451904297	-2819.574951171875	110.2211685180664	-262.1075439453125	-2830.956787109375	104.3932189941406	-205.5292053222656	-3515.501220703125	362.2642517089844	-360.478515625
2	0.005	-2901.455322265625	1524.976440429688	-450.7516479492188	-2929.736083984375	1504.489868164062	-143.1427001953125	-2961.827392578125	1064.0234375	-443.2082824707031	-2940.345458984375	1053.251342773438	-146.7465057373047	-2913.22509765625	1007.520935058594	-432.9588623046875	-3468.696533203125	378.2175903320312	-342.7915649414062	-2884.915283203125	1005.494201660156	-179.6183776855469	-3062.648681640625	964.8895874023438	-442.3480224609375	-3018.544677734375	948.5961303710938	-129.7898559570312	-3048.266357421875	1103.2021484375	-291.7362060546875	-3028.44140625	707.3406982421875	-452.6532592773438	-3347.916748046875	476.9401550292969	-426.5006713867188	-3105.8779296875	738.5250854492188	-452.1723327636719	-3067.1318359375	612.8162231445312	-436.7789611816406	-2629.857421875	167.283203125	-150.1002807617188	-3273.155517578125	541.9464111328125	-440.5518188476562	-3144.072998046875	647.3699951171875	-429.3202209472656	-2808.56298828125	715.3617553710938	-136.7442474365234	-3430.9404296875	135.8913269042969	-359.9902954101562	-2883.482177734375	692.877197265625	-131.3808746337891	-2781.576416015625	621.0281372070312	-162.8214416503906	-2858.179443359375	601.4351196289062	-150.9481353759766	-3136.74609375	589.1422729492188	-435.8082885742188	-2819.59375	573.88037109375	-153.6556549072266	-3222.777099609375	481.6934509277344	-443.7444458007812	-3298.935302734375	416.564697265625	-435.5999755859375	-2766.8212890625	458.7807312011719	-151.2423248291016	-3475.768310546875	179.5695953369141	-413.9578857421875	-2844.112060546875	449.0074157714844	-134.0316314697266	-3477.356201171875	362.5004272460938	-307.0923461914062	-2754.65478515625	358.1558227539062	-158.5249328613281	-2833.6015625	351.5643310546875	-144.0881958007812	-3455.4150390625	325.252197265625	-402.3517456054688	-2766.601806640625	164.5865325927734	-177.0514831542969	-2587.8427734375	208.2647705078125	-212.5881042480469	-2828.671875	125.3733062744141	-228.2921142578125	-2794.300048828125	107.3648910522461	-261.4324035644531	-2806.4931640625	102.1694641113281	-204.9752960205078	-3503.012451171875	368.9322204589844	-359.3116760253906
3	0.01	-2884.49072265625	1523.376220703125	-449.7002868652344	-2913.310546875	1502.698120117188	-141.7477416992188	-2945.539306640625	1062.510864257812	-442.6412048339844	-2923.78955078125	1051.06005859375	-146.6399688720703	-2896.414306640625	1006.953857421875	-432.6964721679688	-3453.786865234375	383.6686706542969	-341.6770324707031	-2869.074951171875	1003.348205566406	-179.5496368408203	-3045.70703125	963.9298095703124	-442.8756103515625	-3002.2509765625	946.2149047851562	-131.2183074951172	-3031.711669921875	1101.470092773438	-291.2006530761719	-3009.962158203125	705.6001586914062	-453.0509033203125	-3331.61328125	480.0647583007812	-426.061279296875	-3087.9189453125	737.14111328125	-453.0839538574219	-3048.51123046875	611.1692504882812	-436.9314270019531	-2607.512939453125	169.7369232177734	-150.1027069091797	-3255.051513671875	542.4901733398438	-440.4188232421875	-3126.240966796875	646.0718994140625	-430.824951171875	-2791.5810546875	711.6625366210938	-136.0813446044922	-3421.933837890625	140.8163604736328	-360.984619140625	-2867.369873046875	690.1951904296875	-130.3401641845703	-2768.176513671875	616.791748046875	-163.5582122802734	-2844.507080078125	597.8970336914062	-150.868408203125	-3118.565673828125	587.8784790039062	-436.9104614257812	-2804.36669921875	571.3432006835938	-153.0932159423828	-3206.45458984375	481.2821960449219	-443.7911987304688	-3284.2548828125	418.8582153320312	-435.69189453125	-2749.385986328125	457.5572814941406	-151.3267517089844	-3466.331787109375	185.1188354492188	-414.6078186035156	-2827.9755859375	446.5758361816406	-134.5426940917969	-3466.4189453125	366.4586791992188	-306.9110107421875	-2735.004638671875	357.3469543457031	-159.1349029541016	-2814.582275390625	348.7684936523438	-144.1874237060547	-3443.582763671875	331.0504150390625	-402.1224975585938	-2743.75341796875	162.9595947265625	-176.7433319091797	-2566.32958984375	210.8137817382812	-213.4252471923828	-2806.521484375	124.3069000244141	-228.76513671875	-2771.042724609375	105.4688720703125	-261.9771423339844	-2783.129638671875	100.3464660644531	-205.5060729980469	-3489.65966796875	375.0348510742188	-358.2164916992188
4	0.015	-2867.754638671875	1522.2841796875	-448.8712768554688	-2896.825927734375	1500.786743164062	-140.8543395996094	-2929.45166015625	1061.502685546875	-442.8829956054688	-2907.62548828125	1048.544799804688	-146.1812133789062	-2879.9970703125	1005.913940429688	-433.0328063964844	-3439.533203125	388.9424743652344	-340.9361267089844	-2852.093017578125	1001.525207519531	-179.2269744873047	-3028.85205078125	962.0194091796876	-443.0531921386719	-2986.12060546875	943.9494018554688	-131.2135162353516	-3015.445068359375	1099.838623046875	-291.0211486816406	-2991.91943359375	704.137939453125	-453.0779724121094	-3314.921630859375	482.355712890625	-425.3773803710938	-3069.178955078125	734.5883178710938	-452.7857971191406	-3030.206298828125	609.4234008789062	-438.1686401367188	-2587.053466796875	170.8818969726562	-151.0682830810547	-3237.56689453125	543.83349609375	-441.08544921875	-3107.222900390625	643.2081909179688	-431.2078857421875	-2776.813232421875	708.2471923828125	-134.9424591064453	-3412.802978515625	146.4740600585938	-361.1231689453125	-2851.34130859375	686.5050659179688	-128.9354553222656	-2753.3310546875	613.0359497070312	-163.5659790039062	-2830.166748046875	594.5420532226562	-150.7982177734375	-3099.947998046875	585.796630859375	-437.1566162109375	-2789.2841796875	568.2847900390625	-152.7219543457031	-3190.351318359375	481.1492919921875	-444.9715881347656	-3269.370361328125	419.7621459960938	-435.6604309082031	-2733.32568359375	456.3733825683594	-151.7333068847656	-3455.459228515625	191.7198944091797	-414.9349670410156	-2810.62841796875	443.8149108886719	-135.1016845703125	-3452.607177734375	372.4195251464844	-306.7432250976562	-2717.9697265625	355.6943359375	-159.4115447998047	-2796.5595703125	346.8385925292969	-145.5402679443359	-3430.822021484375	337.1562194824219	-401.4905700683594	-2722.67431640625	162.3870544433594	-177.836181640625	-2546.368896484375	212.7514953613281	-213.9749298095703	-2785.1279296875	121.911735534668	-229.8370513916016	-2748.6162109375	103.7936172485352	-262.7626037597656	-2761.07861328125	98.48582458496094	-206.4499816894531	-3475.693359375	380.7457885742188	-357.092041015625
5	0.02	-2851.350830078125	1520.267822265625	-448.0282897949219	-2880.521484375	1498.376098632812	-139.9614715576172	-2913.316162109375	1059.939575195312	-442.2893371582031	-2890.85107421875	1046.15185546875	-146.2757415771484	-2863.076904296875	1004.826843261719	-433.2123413085938	-3424.7822265625	394.3821716308594	-339.7150573730469	-2835.72119140625	999.4589233398438	-179.2382507324219	-3012.5283203125	960.558837890625	-443.1145324707031	-2969.610107421875	941.2506103515624	-131.4266052246094	-2998.90283203125	1097.696044921875	-290.9496154785156	-2973.9931640625	702.5198364257812	-453.9109802246094	-3297.79296875	484.7530212402344	-425.3572692871094	-3051.45361328125	732.1764526367188	-453.0152893066406	-3011.40966796875	607.1002807617188	-438.6268615722656	-2567.2392578125	171.0987091064453	-151.3240051269531	-3218.73828125	543.611572265625	-440.6041564941406	-3089.095458984375	640.5265502929688	-431.4665832519531	-2760.89697265625	704.8389282226562	-133.9905395507812	-3403.154296875	150.618408203125	-363.2859802246094	-2836.972412109375	682.78125	-127.4549026489258	-2738.34716796875	609.5687255859375	-163.5946655273438	-2814.73974609375	591.2150268554688	-150.3147430419922	-3081.118408203125	583.4194946289062	-438.0009460449219	-2774.650390625	564.8358154296875	-152.5518493652344	-3173.41650390625	480.0601501464844	-445.3559265136719	-3253.9814453125	421.3602905273438	-435.6980895996094	-2716.624755859375	454.6162414550781	-152.2773590087891	-3445.842529296875	198.2591857910156	-415.5376892089844	-2793.884033203125	440.9182739257812	-134.7964782714844	-3438.156982421875	377.8670654296875	-306.0268249511719	-2699.90869140625	353.4525146484375	-160.3858795166016	-2777.3603515625	344.1580505371094	-145.4148864746094	-3416.506591796875	341.7016906738281	-400.6997375488281	-2702.87744140625	160.5822143554688	-179.30224609375	-2526.70751953125	213.4972534179688	-213.9043273925781	-2764.067138671875	119.20703125	-230.9103851318359	-2727.75146484375	102.061653137207	-263.6615600585938	-2740.424072265625	96.85057067871094	-207.6628875732422	-3459.379638671875	386.6143798828125	-355.8167114257812
